<svg xmlns="http://www.w3.org/2000/svg" viewBox="0 0 200 120">
  <title>United States Map Outline</title>
  <!-- Continental United States outline (simplified) -->
  <path d="M 160 20 L 180 25 L 190 30 L 195 40 L 185 50 L 170 55 L 150 60 L 120 65 L 90 70 L 60 65 L 40 60 L 25 55 L 15 50 L 10 45 L 8 35 L 12 25 L 20 20 L 40 15 L 70 10 L 100 8 L 130 12 L 160 20 Z M 25 75 L 35 85 L 50 90 L 70 95 L 90 98 L 120 100 L 150 95 L 170 85 L 180 75 L 175 65 L 160 60 L 140 65 L 110 70 L 80 75 L 50 70 L 30 68 L 25 75 Z" 
        fill="#4A90E2" 
        stroke="#2E5A87" 
        stroke-width="1.5"/>
  
  <!-- Alaska (simplified) -->
  <path d="M 15 85 L 25 80 L 35 82 L 40 88 L 35 95 L 25 98 L 15 95 L 12 90 L 15 85 Z" 
        fill="#4A90E2" 
        stroke="#2E5A87" 
        stroke-width="1"/>
  
  <!-- Hawaii (simplified dots) -->
  <circle cx="45" cy="105" r="1.5" fill="#4A90E2" stroke="#2E5A87"/>
  <circle cx="48" cy="107" r="1" fill="#4A90E2" stroke="#2E5A87"/>
  <circle cx="51" cy="105" r="1.2" fill="#4A90E2" stroke="#2E5A87"/>
  <circle cx="54" cy="108" r="0.8" fill="#4A90E2" stroke="#2E5A87"/>
  
  <!-- Labels -->
  <text x="100" y="50" text-anchor="middle" font-family="Arial, sans-serif" font-size="12" fill="#1A1A1A" font-weight="bold">USA</text>
  <text x="25" y="102" text-anchor="middle" font-family="Arial, sans-serif" font-size="8" fill="#1A1A1A">AK</text>
  <text x="50" y="115" text-anchor="middle" font-family="Arial, sans-serif" font-size="8" fill="#1A1A1A">HI</text>
</svg>
