<svg xmlns="http://www.w3.org/2000/svg" viewBox="0 0 150 100">
  <title>Flag of China</title>
  <rect width="150" height="100" fill="#DE2910"/>
  <polygon points="30,25 32,31 38,31 33,35 35,41 30,37 25,41 27,35 22,31 28,31" fill="#FFDE00"/>
  <polygon points="50,15 51,17 53,17 52,18 52,20 50,19 48,20 48,18 47,17 49,17" fill="#FFDE00"/>
  <polygon points="55,25 56,27 58,27 57,28 57,30 55,29 53,30 53,28 52,27 54,27" fill="#FFDE00"/>
  <polygon points="55,40 56,42 58,42 57,43 57,45 55,44 53,45 53,43 52,42 54,42" fill="#FFDE00"/>
  <polygon points="45,50 46,52 48,52 47,53 47,55 45,54 43,55 43,53 42,52 44,52" fill="#FFDE00"/>
</svg>