<svg xmlns="http://www.w3.org/2000/svg" viewBox="0 0 150 100">
  <title>Flag of India</title>
  <rect width="150" height="33.33" fill="#FF9933"/>
  <rect y="33.33" width="150" height="33.33" fill="#FFFFFF"/>
  <rect y="66.66" width="150" height="33.33" fill="#138808"/>
  <circle cx="75" cy="50" r="12" fill="none" stroke="#000080" stroke-width="1"/>
  <g stroke="#000080" stroke-width="0.5" fill="none">
    <line x1="83" y1="50" x2="87" y2="50"/><line x1="82.72740661031254" y1="52.070552360820166" x2="86.59110991546882" y2="53.10582854123025"/><line x1="81.92820323027551" y1="54" x2="85.39230484541326" y2="56"/><line x1="80.65685424949238" y1="55.65685424949238" x2="83.48528137423857" y2="58.48528137423857"/><line x1="79" y1="56.92820323027551" x2="81" y2="60.392304845413264"/><line x1="77.07055236082016" y1="57.72740661031255" x2="78.10582854123025" y2="61.59110991546882"/><line x1="75" y1="58" x2="75" y2="62"/><line x1="72.92944763917983" y1="57.72740661031255" x2="71.89417145876975" y2="61.59110991546882"/><line x1="71" y1="56.92820323027551" x2="69" y2="60.392304845413264"/><line x1="69.34314575050762" y1="55.65685424949238" x2="66.51471862576143" y2="58.48528137423857"/><line x1="68.07179676972449" y1="54" x2="64.60769515458674" y2="56"/><line x1="67.27259338968746" y1="52.070552360820166" x2="63.40889008453118" y2="53.10582854123025"/><line x1="67" y1="50" x2="63" y2="50"/><line x1="67.27259338968746" y1="47.929447639179834" x2="63.40889008453118" y2="46.894171458769755"/><line x1="68.07179676972449" y1="46" x2="64.60769515458674" y2="44"/><line x1="69.34314575050762" y1="44.34314575050762" x2="66.51471862576143" y2="41.51471862576143"/><line x1="71" y1="43.07179676972449" x2="69" y2="39.607695154586736"/><line x1="72.92944763917984" y1="42.27259338968745" x2="71.89417145876975" y2="38.40889008453118"/><line x1="75" y1="42" x2="75" y2="38"/><line x1="77.07055236082017" y1="42.27259338968746" x2="78.10582854123025" y2="38.40889008453118"/><line x1="79" y1="43.07179676972449" x2="81" y2="39.607695154586736"/><line x1="80.65685424949238" y1="44.34314575050762" x2="83.48528137423857" y2="41.51471862576143"/><line x1="81.9282032302755" y1="46" x2="85.39230484541326" y2="43.99999999999999"/><line x1="82.72740661031254" y1="47.929447639179834" x2="86.59110991546882" y2="46.894171458769755"/>
  </g>
</svg>