<svg xmlns="http://www.w3.org/2000/svg" viewBox="0 0 190 100">
  <title>Flag of the United States</title>
  <!-- Red stripes -->
  <rect width="190" height="100" fill="#B22234"/>
  <!-- White stripes -->
  <rect y="7.69" width="190" height="7.69" fill="#FFFFFF"/>
  <rect y="23.08" width="190" height="7.69" fill="#FFFFFF"/>
  <rect y="38.46" width="190" height="7.69" fill="#FFFFFF"/>
  <rect y="53.85" width="190" height="7.69" fill="#FFFFFF"/>
  <rect y="69.23" width="190" height="7.69" fill="#FFFFFF"/>
  <rect y="84.62" width="190" height="7.69" fill="#FFFFFF"/>
  <!-- Blue canton -->
  <rect width="76" height="53.85" fill="#3C3B6E"/>
  <!-- Stars (simplified as white dots) -->
  <g fill="#FFFFFF">
    <circle cx="9.5" cy="6.5" r="1.8"/>
    <circle cx="19" cy="6.5" r="1.8"/>
    <circle cx="28.5" cy="6.5" r="1.8"/>
    <circle cx="38" cy="6.5" r="1.8"/>
    <circle cx="47.5" cy="6.5" r="1.8"/>
    <circle cx="57" cy="6.5" r="1.8"/>
    <circle cx="66.5" cy="6.5" r="1.8"/>
    <circle cx="14.25" cy="12" r="1.8"/>
    <circle cx="23.75" cy="12" r="1.8"/>
    <circle cx="33.25" cy="12" r="1.8"/>
    <circle cx="42.75" cy="12" r="1.8"/>
    <circle cx="52.25" cy="12" r="1.8"/>
    <circle cx="61.75" cy="12" r="1.8"/>
    <circle cx="9.5" cy="17.5" r="1.8"/>
    <circle cx="19" cy="17.5" r="1.8"/>
    <circle cx="28.5" cy="17.5" r="1.8"/>
    <circle cx="38" cy="17.5" r="1.8"/>
    <circle cx="47.5" cy="17.5" r="1.8"/>
    <circle cx="57" cy="17.5" r="1.8"/>
    <circle cx="66.5" cy="17.5" r="1.8"/>
    <circle cx="14.25" cy="23" r="1.8"/>
    <circle cx="23.75" cy="23" r="1.8"/>
    <circle cx="33.25" cy="23" r="1.8"/>
    <circle cx="42.75" cy="23" r="1.8"/>
    <circle cx="52.25" cy="23" r="1.8"/>
    <circle cx="61.75" cy="23" r="1.8"/>
    <circle cx="9.5" cy="28.5" r="1.8"/>
    <circle cx="19" cy="28.5" r="1.8"/>
    <circle cx="28.5" cy="28.5" r="1.8"/>
    <circle cx="38" cy="28.5" r="1.8"/>
    <circle cx="47.5" cy="28.5" r="1.8"/>
    <circle cx="57" cy="28.5" r="1.8"/>
    <circle cx="66.5" cy="28.5" r="1.8"/>
    <circle cx="14.25" cy="34" r="1.8"/>
    <circle cx="23.75" cy="34" r="1.8"/>
    <circle cx="33.25" cy="34" r="1.8"/>
    <circle cx="42.75" cy="34" r="1.8"/>
    <circle cx="52.25" cy="34" r="1.8"/>
    <circle cx="61.75" cy="34" r="1.8"/>
    <circle cx="9.5" cy="39.5" r="1.8"/>
    <circle cx="19" cy="39.5" r="1.8"/>
    <circle cx="28.5" cy="39.5" r="1.8"/>
    <circle cx="38" cy="39.5" r="1.8"/>
    <circle cx="47.5" cy="39.5" r="1.8"/>
    <circle cx="57" cy="39.5" r="1.8"/>
    <circle cx="66.5" cy="39.5" r="1.8"/>
    <circle cx="14.25" cy="45" r="1.8"/>
    <circle cx="23.75" cy="45" r="1.8"/>
    <circle cx="33.25" cy="45" r="1.8"/>
    <circle cx="42.75" cy="45" r="1.8"/>
    <circle cx="52.25" cy="45" r="1.8"/>
    <circle cx="61.75" cy="45" r="1.8"/>
  </g>
</svg>
